<svg width="32" height="32" viewBox="0 0 32 32" fill="none" xmlns="http://www.w3.org/2000/svg">
<g id="thumbs-up">
<path id="Vector" d="M9.33329 14.6667L14.6666 2.66669C15.7275 2.66669 16.7449 3.08811 17.4951 3.83826C18.2452 4.58841 18.6666 5.60582 18.6666 6.66669V12H26.2133C26.5998 11.9956 26.9827 12.0754 27.3354 12.2336C27.6881 12.3919 28.0021 12.625 28.2558 12.9167C28.5094 13.2084 28.6966 13.5518 28.8044 13.923C28.9122 14.2943 28.938 14.6845 28.88 15.0667L27.04 27.0667C26.9435 27.7026 26.6205 28.2822 26.1305 28.6987C25.6405 29.1152 25.0164 29.3406 24.3733 29.3334H9.33329M9.33329 14.6667V29.3334M9.33329 14.6667H5.33329C4.62605 14.6667 3.94777 14.9476 3.44767 15.4477C2.94758 15.9478 2.66663 16.6261 2.66663 17.3334V26.6667C2.66663 27.3739 2.94758 28.0522 3.44767 28.5523C3.94777 29.0524 4.62605 29.3334 5.33329 29.3334H9.33329" stroke="black" stroke-width="2" stroke-linecap="round" stroke-linejoin="round"/>
</g>
</svg>
