<svg width="12" height="20" viewBox="0 0 12 20" fill="none" xmlns="http://www.w3.org/2000/svg">
<g id="Group">
<g id="Group_2">
<path id="Vector" d="M10.011 14.1155C9.81687 14.0925 9.64328 14.248 9.6226 14.4625L9.16407 19.2186H2.83592L2.38361 14.5264C2.36292 14.3119 2.18909 14.1564 1.99521 14.1795C1.80136 14.2023 1.66103 14.3948 1.68171 14.6093L2.1677 19.6507C2.18683 19.8493 2.33822 19.9999 2.51865 19.9999H9.48142C9.66185 19.9999 9.81323 19.8493 9.83236 19.6507L10.3245 14.5454C10.3452 14.3309 10.2048 14.1384 10.011 14.1155Z" fill="#324A59"/>
<path id="Vector_2" d="M11.6471 2.78477H10.8574L10.2356 1.09301C10.1815 0.94582 10.0522 0.84957 9.90864 0.84957H7.74309L7.13664 0.125156C7.06982 0.0453516 6.976 0 6.87771 0H5.12237C5.02407 0 4.93025 0.0453516 4.86347 0.125156L4.25701 0.84957H2.09146C1.94788 0.84957 1.81863 0.94582 1.76452 1.09301L1.14271 2.78477H0.35296C0.15802 2.78477 0 2.95965 0 3.17539V4.85402C0 5.06977 0.15802 5.24465 0.35296 5.24465H0.778912L1.22202 9.84109C1.2427 10.0556 1.41653 10.2111 1.61041 10.188C1.80426 10.1652 1.9446 9.97269 1.92391 9.7582L1.48878 5.24465H10.5112L10.0746 9.7732C10.054 9.98773 10.1943 10.1802 10.3881 10.203C10.4009 10.2046 10.4135 10.2053 10.426 10.2053C10.6041 10.2053 10.7572 10.0565 10.7765 9.85609L11.2211 5.24465H11.647C11.842 5.24465 12 5.06977 12 4.85402V3.17539C12.0001 2.95965 11.8421 2.78477 11.6471 2.78477ZM2.3289 1.63082H4.41115C4.50945 1.63082 4.60327 1.58547 4.67005 1.50566L5.2765 0.78125H6.72357L7.33002 1.50566C7.39684 1.58543 7.49065 1.63082 7.58892 1.63082H9.67117L10.0953 2.78477H1.90478L2.3289 1.63082ZM11.2942 4.4634H0.70592V3.56602H11.2942V4.4634Z" fill="#324A59"/>
</g>
<g id="Group_3">
<path id="Vector_3" d="M0.59668 8.55127L1.30048 15.8518H10.6995L11.4033 8.55127H0.59668ZM6 13.6691C5.28265 13.6691 4.70111 13.0255 4.70111 12.2316C4.70111 11.4377 5.28265 10.7941 6 10.7941C6.71736 10.7941 7.29889 11.4377 7.29889 12.2316C7.29889 13.0255 6.71736 13.6691 6 13.6691Z" fill="#895129"/>
<g id="Group_4">
<path id="Vector_4" d="M5.99951 14.0598C5.08866 14.0598 4.34766 13.2397 4.34766 12.2317C4.34766 11.2236 5.08866 10.4036 5.99951 10.4036C6.91036 10.4036 7.65137 11.2236 7.65137 12.2317C7.65137 13.2397 6.91036 14.0598 5.99951 14.0598ZM5.99951 11.1849C5.47794 11.1849 5.05358 11.6545 5.05358 12.2317C5.05358 12.809 5.47791 13.2786 5.99951 13.2786C6.52112 13.2786 6.94544 12.809 6.94544 12.2317C6.94544 11.6545 6.52108 11.1849 5.99951 11.1849Z" fill="#8FD9FB"/>
</g>
</g>
</g>
</svg>
