<svg width="47" height="47" viewBox="0 0 47 47" fill="none" xmlns="http://www.w3.org/2000/svg">
<g id="Profile Face">
<path d="M46 23.5C46 35.9264 35.9264 46 23.5 46C11.0736 46 1 35.9264 1 23.5C1 11.0736 11.0736 1 23.5 1C35.9264 1 46 11.0736 46 23.5Z" fill="#E6D6C1"/>
<path d="M9.30767 40.9602C10.5253 34.9681 16.4163 30.4231 23.5 30.4231C30.5837 30.4231 36.4747 34.9681 37.6923 40.9602C33.8207 44.1111 28.8809 46 23.5 46C18.1191 46 13.1793 44.1111 9.30767 40.9602Z" fill="white"/>
<path d="M30.4231 20.4712C30.4231 24.3743 27.2589 27.5385 23.3558 27.5385C19.4526 27.5385 16.2885 24.3743 16.2885 20.4712C16.2885 16.568 19.4526 13.4038 23.3558 13.4038C27.2589 13.4038 30.4231 16.568 30.4231 20.4712Z" fill="white"/>
<path d="M23.5 46C35.9264 46 46 35.9264 46 23.5C46 11.0736 35.9264 1 23.5 1C11.0736 1 1 11.0736 1 23.5C1 35.9264 11.0736 46 23.5 46ZM23.5 46C28.8809 46 33.8207 44.1111 37.6923 40.9602C36.4747 34.9681 30.5837 30.4231 23.5 30.4231C16.4163 30.4231 10.5253 34.9681 9.30767 40.9602C13.1793 44.1111 18.1191 46 23.5 46ZM30.4231 20.4712C30.4231 24.3743 27.2589 27.5385 23.3558 27.5385C19.4526 27.5385 16.2885 24.3743 16.2885 20.4712C16.2885 16.568 19.4526 13.4038 23.3558 13.4038C27.2589 13.4038 30.4231 16.568 30.4231 20.4712Z" stroke="black" stroke-width="0.75"/>
</g>
</svg>
