<svg width="29" height="29" viewBox="0 0 29 29" fill="none" xmlns="http://www.w3.org/2000/svg">
<g id="&#240;&#159;&#166;&#134; icon &#34;group&#34;">
<path id="Vector" d="M26.9674 18.1476L23.0816 15.6051L24.5777 12.8622C24.9386 12.1773 25.1276 11.415 25.1286 10.6409V6.29263C25.1316 5.07 24.7775 3.87311 24.1098 2.84893C23.442 1.82474 22.4897 1.01785 21.3698 0.527336C20.2499 0.0368215 19.0111 -0.115963 17.8055 0.0877449C16.6 0.291452 15.4802 0.842783 14.5836 1.67404L15.897 3.09186C16.5183 2.51745 17.2936 2.13681 18.128 1.99659C18.9624 1.85638 19.8196 1.96268 20.5945 2.30248C21.3694 2.64228 22.0283 3.2008 22.4904 3.90956C22.9525 4.61833 23.1977 5.44653 23.1961 6.29263V10.6409C23.1959 11.0916 23.0879 11.5358 22.8811 11.9364L20.5309 16.2452L25.9093 19.7645C26.2643 19.9969 26.5557 20.3142 26.7568 20.6878C26.958 21.0614 27.0626 21.4793 27.0611 21.9036V25.1349H22.7129V27.0675H28.9937V21.9036C28.9956 21.1583 28.8113 20.4243 28.4574 19.7683C28.1036 19.1124 27.5914 18.5552 26.9674 18.1476Z" fill="#959694"/>
<path id="Vector_2" d="M18.2711 20.0801L14.3853 17.5376L15.8813 14.7948C16.2422 14.1099 16.4313 13.3476 16.4322 12.5734V8.2252C16.431 6.55852 15.7687 4.96039 14.5906 3.78141C13.4126 2.60243 11.815 1.93888 10.1483 1.93634C6.68678 1.93634 3.8707 4.75755 3.8707 8.2252V12.5734C3.86702 13.3472 4.054 14.11 4.41514 14.7943L5.91938 17.5521L2.05617 20.0801C1.43293 20.4872 0.921192 21.0434 0.567397 21.6983C0.213603 22.3532 0.0289502 23.0861 0.030196 23.8305L0 29H20.2973V23.8362C20.2993 23.0908 20.1149 22.3568 19.7611 21.7009C19.4072 21.0449 18.895 20.4878 18.2711 20.0801ZM18.3648 27.0675H1.94378L1.9625 23.8362C1.96104 23.4119 2.06564 22.9939 2.26681 22.6203C2.46797 22.2467 2.75932 21.9293 3.11436 21.697L8.47004 18.1925L6.11167 13.8689C5.90722 13.4678 5.80149 13.0237 5.80325 12.5734V8.2252C5.80325 7.07198 6.26136 5.96599 7.07681 5.15054C7.89226 4.33509 8.99825 3.87698 10.1515 3.87698C11.3047 3.87698 12.4107 4.33509 13.2261 5.15054C14.0416 5.96599 14.4997 7.07198 14.4997 8.2252V12.5734C14.4995 13.0242 14.3915 13.4684 14.1848 13.8689L11.8345 18.1778L17.2129 21.6971C17.568 21.9294 17.8593 22.2468 18.0605 22.6204C18.2616 22.994 18.3662 23.4119 18.3648 23.8362V27.0675Z" fill="#959694"/>
</g>
</svg>
