<svg width="11" height="11" viewBox="0 0 11 11" fill="none" xmlns="http://www.w3.org/2000/svg">
<g id="Group">
<path id="Vector" d="M0.47998 9.29802C-0.576513 7.43536 0.142404 4.51396 2.32801 2.3282C4.80998 -0.152936 8.24185 -0.744449 9.99405 1.00705C9.99611 1.00934 9.99783 1.01194 10.0006 1.01427C9.64996 2.03431 8.53324 4.20469 5.18582 5.3781C2.11944 6.45358 0.936571 8.16344 0.47998 9.29802ZM10.4869 1.64468C10.2213 2.26413 9.75902 3.07365 8.96256 3.86988C8.16198 4.67063 7.02413 5.45708 5.41242 6.02231C2.1413 7.16914 1.22734 9.04658 0.972339 9.95637C0.984386 9.96851 0.994745 9.9811 1.00645 9.99291C2.75848 11.7445 6.19049 11.153 8.67229 8.67146C10.8806 6.46353 11.5909 3.50424 10.4869 1.64468Z" fill="#895129"/>
</g>
</svg>
